<svg width="100%" height="100%" id="svg" viewBox="0 0 1440 400" xmlns="http://www.w3.org/2000/svg" class="transition duration-300 ease-in-out delay-150"><defs><linearGradient id="gradient" x1="85%" y1="86%" x2="15%" y2="14%"><stop offset="5%" stop-color="#b72a72ff"></stop><stop offset="95%" stop-color="#f78da7ff"></stop></linearGradient></defs><path d="M 0,400 C 0,400 0,200 0,200 C 74.37856406733081,186.7942287873583 148.75712813466163,173.58845757471659 217,172 C 285.2428718653384,170.41154242528341 347.3500515286843,180.44039848849195 415,200 C 482.6499484713157,219.55960151150805 555.8426657506011,248.64994847131567 632,258 C 708.1573342493989,267.35005152868433 787.2792854689112,256.9598076262453 846,243 C 904.7207145310888,229.04019237375468 943.0401923737547,211.51082102370316 1012,212 C 1080.9598076262453,212.48917897629684 1180.55994503607,230.99690827894196 1257,232 C 1333.44005496393,233.00309172105804 1386.720027481965,216.501545860529 1440,200 C 1440,200 1440,400 1440,400 Z" stroke="none" stroke-width="0" fill="url(#gradient)" class="transition-all duration-300 ease-in-out delay-150 path-0"></path></svg>
